# xmcd
#
# Track frame offsets:
# 150
# 17970
# 27405
# 43575
# 66817
# 85499
# 99846
# 118341
# 135156
# 146533
#
# Disc length: 2060 seconds
#
#
# Revision: 0
# Processed by: cddbd v1.5.1PL2 Copyright (c) Steve Scherf et al.
# Submitted via: FreeRIP 2.942 
#
DISCID=84080a0a
DTITLE=Cash, Johnny - Johnny Cash At San Quentin
DYEAR=1900
DGENRE=Country
TTITLE0=Wanted Man (Live)
TTITLE1=Wreck Of The Old 97 (Live)
TTITLE2=I Walk The Line (Live)
TTITLE3=Darling Companion (Live)
TTITLE4=Starkville City Jail (Live)
TTITLE5=San Quentin (Live)
TTITLE6=San Quentin On Cor (Live)
TTITLE7=A Boy Named Sue (Live)
TTITLE8=Peace In The Vally (Live)
TTITLE9=Folsom Prison Blues (Live)
EXTD=LP Rip\nColumbia Records - 
EXTT0=
EXTT1=
EXTT2=
EXTT3=
EXTT4=
EXTT5=
EXTT6=
EXTT7=
EXTT8=
EXTT9=
PLAYORDER=
